<svg id="Layer_1" data-name="Layer 1" xmlns="http://www.w3.org/2000/svg" viewBox="0 0 248.25 178.16"><path d="M308.61,339H266.35l19.1-73.9,1.88-7.29h42.26c13.47,0,21.66,10.53,18.3,23.52l-8.83,34.16C335.71,328.47,322.07,339,308.61,339Z" transform="translate(-125.47 -160.84)"/><path d="M333.09,244.28H290.83l13.7-53c1.29-5-1.85-9-7-9h0a12.66,12.66,0,0,0-11.68,9L247.64,339H205.38c-13.46,0-21.66-10.53-18.3-23.51l32.11-124.2c1.28-5-1.86-9-7-9h0a12.68,12.68,0,0,0-11.69,9l-13.7,53H144.52c-13.46,0-21.66-10.52-18.3-23.51l9.41-36.42c3.36-13,17-23.51,30.46-23.51H354.66c13.47,0,21.66,10.53,18.3,23.51l-9.41,36.42C360.19,233.76,346.56,244.28,333.09,244.28Z" transform="translate(-125.47 -160.84)"/></svg>